<?xml version="1.0" standalone="no"?>
<!DOCTYPE svg PUBLIC "-//W3C//DTD SVG 20010904//EN"
 "http://www.w3.org/TR/2001/REC-SVG-20010904/DTD/svg10.dtd">
<svg version="1.0" xmlns="http://www.w3.org/2000/svg"
 width="512.000000pt" height="512.000000pt" viewBox="0 0 512.000000 512.000000"
 preserveAspectRatio="xMidYMid meet">
<metadata>
Created by potrace 1.11, written by Peter Selinger 2001-2013
</metadata>
<g transform="translate(0.000000,512.000000) scale(0.100000,-0.100000)"
fill="#000000" stroke="none">
<path d="M600 3420 l0 -1360 335 0 335 0 0 480 0 480 173 0 172 0 181 -363
182 -362 -44 -55 c-95 -118 -169 -296 -199 -480 -24 -139 -16 -454 14 -582 72
-311 263 -548 524 -648 140 -55 196 -64 387 -64 150 -1 188 3 265 22 336 85
565 337 591 652 l7 80 -295 0 -296 0 -7 -47 c-14 -96 -56 -156 -132 -194 -67
-32 -209 -34 -268 -2 -138 73 -181 221 -172 588 7 253 27 338 97 419 52 59 95
76 195 76 100 0 143 -15 198 -68 41 -40 71 -109 82 -189 l7 -53 295 0 296 0
-6 88 c-20 276 -163 501 -397 621 -136 70 -222 90 -424 99 l-138 7 -159 305
c-87 168 -159 307 -159 310 0 3 25 18 55 34 76 40 172 113 228 176 l47 52 0
-73 c0 -175 55 -373 139 -502 169 -257 470 -385 817 -347 294 31 515 179 634
424 27 55 56 128 64 161 41 161 45 404 11 570 -53 256 -201 458 -409 560 -374
184 -866 87 -1084 -213 l-29 -41 -7 73 c-31 339 -245 576 -616 680 -146 41
-231 46 -872 46 l-618 0 0 -1360z m1227 826 c153 -49 236 -198 219 -393 -11
-134 -76 -238 -176 -282 -72 -31 -160 -41 -387 -41 l-213 0 0 371 0 371 253
-4 c199 -4 263 -8 304 -22z m1725 -369 c57 -33 96 -84 125 -164 60 -167 52
-498 -16 -632 -53 -103 -131 -151 -246 -151 -85 0 -154 29 -202 84 -70 78 -93
161 -100 356 -6 169 10 286 52 377 33 73 67 109 130 140 43 21 61 24 131 20
65 -3 90 -8 126 -30z"/>
</g>
</svg>
