<!--  Ionicons
      Copyright (c) 2016 Drifty (http://drifty.com/)
      The MIT License (MIT) -->
<svg class="googleplus {{ include.class }}"
     xmlns="http://www.w3.org/2000/svg"
     viewBox="0 0 512 512"
     role="img"
     aria-labelledby="googleplus-svg">
  <title id="googleplus=svg">Google Plus</title>
  <g>
    {% if include.class == 'outline' %}
      <path d="M223.5,82.1c11.8,9.6,36.4,29.7,36.4,68c0,37.3-21.5,54.9-43.1,71.5c-6.7,6.6-14.4,13.6-14.4,24.7
        c0,11.1,7.7,17.2,13.3,21.7l18.5,14.1c22.6,18.6,43.1,35.8,43.1,70.6c0,47.4-46.7,95.2-135,95.2C67.9,448,32,413.2,32,375.9
        c0-18.1,9.2-43.8,39.5-61.5c31.8-19.1,75-21.7,98-23.2c-7.2-9.1-15.4-18.7-15.4-34.3c0-8.6,2.6-13.6,5.1-19.7
        c-5.6,0.5-11.3,1-16.4,1c-54.4,0-85.2-39.8-85.2-79.1c0-23.2,10.8-48.9,32.9-67.5C119.8,68,154.7,64,182.4,64h105.7l-32.8,18.1
        H223.5z M187,305.9c-4.1-0.5-6.7-0.5-11.8-0.5c-4.6,0-32.3,1-53.9,8c-11.3,4-44.1,16.1-44.1,51.9c0,35.8,35.4,61.5,90.3,61.5
        c49.3,0,75.4-23.2,75.4-54.4C242.9,346.7,226,333.1,187,305.9 M201.9,210.1c11.8-11.6,12.8-27.7,12.8-36.8
        c0-36.3-22.1-92.7-64.7-92.7c-13.3,0-27.7,6.5-35.9,16.6c-8.7,10.6-11.3,24.2-11.3,37.3c0,33.8,20,89.7,64.2,89.7
        C179.8,224.3,193.6,218.2,201.9,210.1"/>
      <polygon points="480,142.3 401.7,142.3 401.7,64.1 384,64.1 384,142.3 304.3,142.3 304.3,160.1 384,160.1 384,241 401.7,241
        401.7,160.1 480,160.1   "/>
    {% else %}
      <path d="M242.1,275.6l-18.2-13.7l-0.1-0.1c-5.8-4.6-10-8.3-10-14.7c0-7,5-11.8,10.9-17.4l0.5-0.4c20-15.2,44.7-34.3,44.7-74.6
        c0-26.9-11.9-44.7-23.3-57.7h13L320,64H186.5c-25.3,0-62.7,3.2-94.6,28.6l-0.1,0.3C70,110.9,57,137.4,57,163.5
        c0,21.2,8.7,42.2,23.9,57.4c21.4,21.6,48.3,26.1,67.1,26.1c1.5,0,3,0,4.5-0.1c-0.8,3-1.2,6.3-1.2,10.3c0,10.9,3.6,19.3,8.1,26.2
        c-24,1.9-58.1,6.5-84.9,22.3C35.1,328.4,32,361.7,32,371.3c0,38.2,35.7,76.8,115.5,76.8c91.6,0,139.5-49.8,139.5-99
        C287,312,264.2,293.5,242.1,275.6z M116.7,139.9c0-13.4,3-23.5,9.3-30.9c6.5-7.9,18.2-13.1,29-13.1c19.9,0,32.9,15,40.4,27.6
        c9.2,15.5,14.9,36.1,14.9,53.6c0,4.9,0,20-10.2,29.8c-7,6.7-18.7,11.4-28.6,11.4c-20.5,0-33.5-14.7-40.7-27
        C120.4,173.5,116.7,153.1,116.7,139.9z M237.8,368c0,27.4-25.2,44.5-65.8,44.5c-48.1,0-80.3-20.6-80.3-51.3
        c0-26.1,21.5-36.8,37.8-42.5c18.9-6.1,44.3-7.3,50.1-7.3c3.9,0,6.1,0,8.7,0.2C224.9,336.8,237.8,347.7,237.8,368z"/>
      <polygon points="402,142 402,64 368,64 368,142 288,142 288,176 368,176 368,257 402,257 402,176 480,176 480,142  "/>
    {% endif %}
  </g>
</svg>
