<!--  Ionicons
      Copyright (c) 2016 Drifty (http://drifty.com/)
      The MIT License (MIT) -->
<svg class="linkedin {{ include.class }}"
     xmlns="http://www.w3.org/2000/svg"
     viewBox="0 0 512 512"
     role="img"
     aria-labelledby="linkedin-svg">
  <title id="linkedin-svg">LinkedIn</title>
  <g>
    {% if include.class == 'outline' %}
      <g>
        <path class="st0" d="M182.8,384V212.9h-54.9V384H182.8L182.8,384z M157.4,187c18.3,0,29.7-13.1,29.7-29.5
          c-0.3-16.7-11.4-29.5-29.4-29.5c-18,0-29.7,12.8-29.7,29.5c0,16.4,11.4,29.5,29,29.5H157.4L157.4,187z"/>
        <path class="st0" d="M320.6,209c-29.1,0-41.6,16.4-49.6,27.8V213h-55v171h55v-97.4c0-5,0.4-10,1.9-13.5c4-10,13-20.3,28.2-20.3
          c19.9,0,27.9,15.3,27.9,37.7V384h55v-99.9C384,232.8,356.8,209,320.6,209z"/>
      </g>
      <path d="M417.2,64H96.8C79.3,64,64,76.6,64,93.9v321.1c0,17.4,15.3,32.9,32.8,32.9h320.3c17.6,0,30.8-15.6,30.8-32.9V93.9
        C448,76.6,434.7,64,417.2,64z M414,416c-1.1,0-313.1,0-314.9,0s-3.1-1.4-3.1-3.1S96,99.1,96,98s1-2,2-2s315,0,316,0s2,1,2,2
        c0,23.3,0,314.9,0,316C416,414.9,415.1,416,414,416z"/>
    {% else %}
      <path d="M417.2,64H96.8C79.3,64,64,76.6,64,93.9v321.1c0,17.4,15.3,32.9,32.8,32.9h320.3c17.6,0,30.8-15.6,30.8-32.9V93.9
        C448,76.6,434.7,64,417.2,64z M183,384h-55V213h55V384z M157.4,187H157c-17.6,0-29-13.1-29-29.5c0-16.7,11.7-29.5,29.7-29.5
        c18,0,29,12.7,29.4,29.5C187.1,173.9,175.7,187,157.4,187z M384,384h-55v-93.5c0-22.4-8-37.7-27.9-37.7
        c-15.2,0-24.2,10.3-28.2,20.3c-1.5,3.6-1.9,8.5-1.9,13.5V384h-55V213h55v23.8c8-11.4,20.5-27.8,49.6-27.8
        c36.1,0,63.4,23.8,63.4,75.1V384z"/>
    {% endif %}
  </g>
</svg>
